<?xml version="1.0" encoding="UTF-8"?><svg id="Layer_2" xmlns="http://www.w3.org/2000/svg" xmlns:xlink="http://www.w3.org/1999/xlink" viewBox="0 0 2444.87 521.57"><defs><style>.cls-1{fill:url(#linear-gradient);stroke-width:0px;}.cls-2{fill:#00b0e7;font-family:Ramabhadra, Ramabhadra;font-size:328.55px;isolation:isolate;}</style><linearGradient id="linear-gradient" x1="101.3" y1="1094.4" x2="101.3" y2="593.78" gradientTransform="translate(0 -628)" gradientUnits="userSpaceOnUse"><stop offset="0" stop-color="#00b0e7"/><stop offset=".12" stop-color="#01a1d5"/><stop offset=".53" stop-color="#05719f"/><stop offset=".83" stop-color="#08547c"/><stop offset="1" stop-color="#094970"/></linearGradient></defs><g id="Layer_1-2"><text class="cls-2" transform="translate(293.91 333.94)"><tspan x="0" y="0">StoryConnect</tspan></text><path class="cls-1" d="m84.33,0h-33.68m44.63,0v64.07l61.88,44.35v-34.22c0-1.92.82-3.83,2.74-4.65,4.65-2.46,9.03.55,9.03,4.93v56.95l-85.15-61.33V0m-33.68,0v87.61l89.25,64.89c5.48-4.38,12.87-6.02,20.53-3.29,5.75,2.19,10.4,6.84,12.32,12.59,5.48,16.7-9.31,32.03-26.01,27.11-5.75-1.64-10.4-5.75-12.87-11.23-2.46-5.48-2.46-10.95-.82-15.61L38.33,93.64V0m.82,0H15.61C6.84,0,0,6.84,0,15.61v172.21h35.87v-46.82l128.68,95v93.09h-77.76c-3.01,10.68-14.51,17.8-26.83,14.24-6.57-1.92-11.5-7.12-13.42-13.69-4.38-14.24,6.3-27.38,19.99-27.38,9.58,0,17.52,6.3,20.26,15.06h65.98v-75.57l-105.41-77.76v35.32H0v44.9h72.55c1.92,0,3.83.82,4.65,2.46,2.46,4.65-.55,9.04-4.93,9.04H0v182.62c0,5.48,6.02,8.49,10.4,5.48l90.9-64.34,90.9,64.89c4.38,3.01,10.4,0,10.4-5.48V15.61c0-8.76-7.12-15.61-15.61-15.61h-91.72"/></g></svg>